<svg width="53" height="43" viewBox="0 0 53 43" fill="none" xmlns="http://www.w3.org/2000/svg">
<path d="M26.4254 8.611C28.7594 8.611 30.6515 6.71889 30.6515 4.38485C30.6515 2.05081 28.7594 0.158691 26.4254 0.158691C24.0913 0.158691 22.1992 2.05081 22.1992 4.38485C22.1992 6.71889 24.0913 8.611 26.4254 8.611Z" fill="#FBB716"/>
<path d="M33.6529 20.0256C35.987 20.0256 37.8791 18.1334 37.8791 15.7994C37.8791 13.4654 35.987 11.5732 33.6529 11.5732C31.3189 11.5732 29.4268 13.4654 29.4268 15.7994C29.4268 18.1334 31.3189 20.0256 33.6529 20.0256Z" fill="#FBB716"/>
<path d="M18.9869 20.0256C21.3209 20.0256 23.2131 18.1334 23.2131 15.7994C23.2131 13.4654 21.3209 11.5732 18.9869 11.5732C16.6529 11.5732 14.7607 13.4654 14.7607 15.7994C14.7607 18.1334 16.6529 20.0256 18.9869 20.0256Z" fill="#FBB716"/>
<path d="M33.6529 42.8547C35.987 42.8547 37.8791 40.9625 37.8791 38.6285C37.8791 36.2945 35.987 34.4023 33.6529 34.4023C31.3189 34.4023 29.4268 36.2945 29.4268 38.6285C29.4268 40.9625 31.3189 42.8547 33.6529 42.8547Z" fill="#FBB716"/>
<path d="M48.3199 42.8547C50.6539 42.8547 52.5461 40.9625 52.5461 38.6285C52.5461 36.2945 50.6539 34.4023 48.3199 34.4023C45.9859 34.4023 44.0938 36.2945 44.0938 38.6285C44.0938 40.9625 45.9859 42.8547 48.3199 42.8547Z" fill="#FBB716"/>
<path d="M18.9869 42.8547C21.3209 42.8547 23.2131 40.9625 23.2131 38.6285C23.2131 36.2945 21.3209 34.4023 18.9869 34.4023C16.6529 34.4023 14.7607 36.2945 14.7607 38.6285C14.7607 40.9625 16.6529 42.8547 18.9869 42.8547Z" fill="#FBB716"/>
<path d="M4.33358 42.8547C6.66762 42.8547 8.55974 40.9625 8.55974 38.6285C8.55974 36.2945 6.66762 34.4023 4.33358 34.4023C1.99954 34.4023 0.107422 36.2945 0.107422 38.6285C0.107422 40.9625 1.99954 42.8547 4.33358 42.8547Z" fill="#FBB716"/>
<path d="M11.6402 31.4401C13.9743 31.4401 15.8664 29.548 15.8664 27.2139C15.8664 24.8799 13.9743 22.9878 11.6402 22.9878C9.30618 22.9878 7.41406 24.8799 7.41406 27.2139C7.41406 29.548 9.30618 31.4401 11.6402 31.4401Z" fill="#FBB716"/>
<path d="M40.9605 31.4401C43.2946 31.4401 45.1867 29.548 45.1867 27.2139C45.1867 24.8799 43.2946 22.9878 40.9605 22.9878C38.6265 22.9878 36.7344 24.8799 36.7344 27.2139C36.7344 29.548 38.6265 31.4401 40.9605 31.4401Z" fill="#FBB716"/>
</svg>
